:SAMPLES-PER-SECOND 30
:FULLY-SPECIFIED
:DEGREES
479
root  -6.16473 40.1436 11.6333 179.46 -22.3365 178.748
RightUpLeg  -4.53161 4.0981 -20.0518
RightLeg  25.408 -5.04094 -2.82528
RightFoot  12.7006 -3.18837 15.3071
RightToes  -1.33073e-015 0 -3.6325e-017
Spine  0.685884 0.569946 1.82433
Spine1  17.723 -0.823663 2.12896
HEad  10.4453 -22.0185 6.56078
LeftShoulder1  6.97823 -14.6317 -32.4603
LeftArm  13.9075 13.0423 -41.8604
LeftForeArm  13.7688 -33.0924 -6.54694
LeftHand  -0.246645 0.021 5.37786
RightShoulder  6.06561 13.2879 30.1562
RightArm  41.4953 14.6792 36.1105
RightForeArm  41.0686 40.9932 7.09133
RightHand  -0.24729 -0.0210522 -5.37781
LeftUpLeg  -3.8969 7.18276 1.5623
LeftLeg  9.38685 5.12521 -3.1765
LeftFoot  -3.65494 0.00889878 0.195941
LeftToes  5.09284e-011 3.02203e-011 3.83118e-011
480
root  -5.93899 40.1715 11.6208 179.614 -19.2754 179.132
RightUpLeg  -3.94256 1.71086 -19.6244
RightLeg  21.8235 -4.4934 -2.18857
RightFoot  10.8541 -3.33865 17.2868
RightToes  -1.33073e-015 0 -3.6325e-017
Spine  0.642914 0.510065 0.211125
Spine1  18.1065 -0.999056 2.53215
HEad  11.3623 -20.9299 5.93416
LeftShoulder1  6.90526 -14.5787 -32.1693
LeftArm  14.4028 11.9517 -40.9622
LeftForeArm  14.139 -33.6372 -6.66756
LeftHand  -0.246645 0.021 5.37786
RightShoulder  6.01956 13.2712 29.9137
RightArm  41.2678 14.4806 35.7936
RightForeArm  37.1901 39.0722 6.76678
RightHand  -0.24729 -0.0210522 -5.37781
LeftUpLeg  -3.9469 7.64042 2.3804
LeftLeg  9.28522 7.54102 -2.77502
LeftFoot  -3.6969 0.0522265 -0.449682
LeftToes  5.09284e-011 3.02203e-011 3.83118e-011
481
root  -5.67796 40.198 11.6038 179.875 -16.5045 179.519
RightUpLeg  -3.25376 -0.729395 -18.9847
RightLeg  18.0848 -3.64168 -1.52676
RightFoot  9.38941 -3.40374 18.8082
RightToes  -1.33073e-015 0 -3.6325e-017
Spine  0.600173 0.511453 -1.094
Spine1  18.1991 -1.01381 2.72738
HEad  12.3318 -19.8985 5.33432
LeftShoulder1  6.82018 -14.5621 -31.7317
LeftArm  15.0883 10.783 -40.3212
LeftForeArm  14.2991 -34.3033 -6.83453
LeftHand  -0.246645 0.021 5.37786
RightShoulder  6.053 13.3795 29.8792
RightArm  41.2085 13.889 35.6623
RightForeArm  33.0186 37.6277 6.61258
RightHand  -0.24729 -0.0210522 -5.37781
LeftUpLeg  -4.05751 8.16459 3.27738
LeftLeg  9.1542 9.50803 -2.4868
LeftFoot  -3.63123 0.100958 -1.17317
LeftToes  5.09284e-011 3.02203e-011 3.83118e-011
482
root  -5.38792 40.2256 11.586 -179.857 -14.1329 179.909
RightUpLeg  -2.38965 -3.55568 -18.1048
RightLeg  14.271 -2.10625 -1.0539
RightFoot  8.3933 -3.37787 19.5792
RightToes  -1.33073e-015 0 -3.6325e-017
Spine  0.629003 0.571475 -2.04213
Spine1  18.1669 -0.901346 2.76792
HEad  12.927 -19.045 4.93862
LeftShoulder1  6.72036 -14.5285 -31.2453
LeftArm  16.0618 9.22376 -40.0911
LeftForeArm  14.4032 -34.9421 -7.00044
LeftHand  -0.246645 0.021 5.37786
RightShoulder  6.17362 13.5801 30.1674
RightArm  41.0264 12.9112 35.4706
RightForeArm  28.7545 36.8525 6.65633
RightHand  -0.24729 -0.0210522 -5.37781
LeftUpLeg  -4.13979 8.65983 4.19982
LeftLeg  8.97543 11.0934 -2.24163
LeftFoot  -3.45609 0.152345 -1.90846
LeftToes  5.09284e-011 3.02203e-011 3.83118e-011
483
root  -5.06587 40.2452 11.5699 -179.603 -12.0419 -179.836
RightUpLeg  -1.46543 -7.18808 -17.1111
RightLeg  10.5566 0.885053 -1.03574
RightFoot  7.65601 -3.29603 19.8361
RightToes  -1.33073e-015 0 -3.6325e-017
Spine  0.706298 0.756469 -2.931
Spine1  18.2157 -0.700933 2.92485
HEad  13.0354 -18.3355 4.64294
LeftShoulder1  6.65624 -14.4838 -30.9793
LeftArm  17.2769 7.19331 -40.2485
LeftForeArm  14.4617 -35.5517 -7.16395
LeftHand  -0.246645 0.021 5.37786
RightShoulder  6.32235 13.8036 30.5641
RightArm  40.5533 11.78 35.3954
RightForeArm  24.4879 36.612 6.84921
RightHand  -0.24729 -0.0210522 -5.37781
LeftUpLeg  -4.14016 9.10541 5.03457
LeftLeg  8.75981 12.5309 -2.0427
LeftFoot  -3.20042 0.202954 -2.58185
LeftToes  5.09284e-011 3.02203e-011 3.83118e-011
484
root  -4.71334 40.2486 11.5536 -179.282 -10.1575 -179.81
RightUpLeg  -0.64623 -9.5392 -16.3355
RightLeg  7.15027 3.41811 -1.14001
RightFoot  6.90063 -3.15435 19.7658
RightToes  -1.33073e-015 0 -3.6325e-017
Spine  0.723417 1.04836 -3.96603
Spine1  18.3257 -0.469558 3.32347
HEad  13.0415 -17.681 4.22073
LeftShoulder1  6.65043 -14.4567 -31.0032
LeftArm  18.5552 4.99201 -40.7717
LeftForeArm  14.5195 -36.196 -7.34006
LeftHand  -0.246645 0.021 5.37786
RightShoulder  6.46586 14.0223 30.9296
RightArm  39.8372 10.7001 35.5862
RightForeArm  20.339 36.6774 7.12138
RightHand  -0.24729 -0.0210522 -5.37781
LeftUpLeg  -4.13313 9.50162 5.69887
LeftLeg  8.506 13.8664 -1.94946
LeftFoot  -2.8956 0.253634 -3.19951
LeftToes  5.09284e-011 3.02203e-011 3.83118e-011
485
root  -4.34212 40.2453 11.5355 -178.841 -8.62819 -179.948
RightUpLeg  -0.0291317 -10.7083 -15.7501
RightLeg  4.23379 5.18845 -1.20765
RightFoot  6.12632 -2.89986 18.9909
RightToes  -1.33073e-015 0 -3.6325e-017
Spine  0.617586 1.28832 -4.97192
Spine1  18.3957 -0.30578 3.80582
HEad  13.2624 -17.0296 3.66715
LeftShoulder1  6.66864 -14.4457 -31.1287
LeftArm  19.652 2.93501 -41.685
LeftForeArm  14.5888 -36.8827 -7.53077
LeftHand  -0.246645 0.021 5.37786
RightShoulder  6.61741 14.226 31.3627
RightArm  39.0636 9.87781 35.9284
RightForeArm  16.4753 36.8959 7.42134
RightHand  -0.24729 -0.0210522 -5.37781
LeftUpLeg  -4.18851 9.80756 6.20002
LeftLeg  8.10236 14.9327 -1.98114
LeftFoot  -2.49686 0.309309 -3.805
LeftToes  5.09284e-011 3.02203e-011 3.83118e-011
486
root  -3.95626 40.2451 11.5206 -178.341 -7.55516 179.849
RightUpLeg  0.311796 -11.2463 -15.2301
RightLeg  2.0635 6.12148 -1.09701
RightFoot  5.40802 -2.49953 17.1139
RightToes  -1.33073e-015 0 -3.6325e-017
Spine  0.434958 1.36925 -5.72044
Spine1  18.4744 -0.272914 4.2191
HEad  13.5537 -16.3373 3.12234
LeftShoulder1  6.69856 -14.4481 -31.2919
LeftArm  20.4377 1.03422 -42.8491
LeftForeArm  14.4311 -37.4986 -7.71865
LeftHand  -0.246645 0.021 5.37786
RightShoulder  6.78296 14.3998 31.9277
RightArm  38.2914 9.55733 36.2605
RightForeArm  13.4927 37.2983 7.7223
RightHand  -0.24729 -0.0210522 -5.37781
LeftUpLeg  -4.27795 10.0005 6.60056
LeftLeg  7.48126 15.6821 -2.09451
LeftFoot  -1.94199 0.373649 -4.40221
LeftToes  5.09284e-011 3.02203e-011 3.83118e-011
487
root  -3.54541 40.2421 11.515 -177.873 -6.76105 179.593
RightUpLeg  0.36932 -11.3382 -14.6736
RightLeg  0.656452 6.1491 -0.868722
RightFoot  4.61253 -2.02015 14.5675
RightToes  -1.33073e-015 0 -3.6325e-017
Spine  0.292634 1.37035 -6.20889
Spine1  18.5996 -0.306408 4.56082
HEad  13.6604 -15.5533 2.56995
LeftShoulder1  6.77664 -14.4919 -31.6368
LeftArm  21.0784 -0.805437 -43.9801
LeftForeArm  13.8109 -37.9014 -7.87575
LeftHand  -0.246645 0.021 5.37786
RightShoulder  6.92911 14.5297 32.4664
RightArm  37.498 9.86205 36.6589
RightForeArm  12.2265 38.0224 8.01532
RightHand  -0.24729 -0.0210522 -5.37781
LeftUpLeg  -4.32886 10.1445 6.96145
LeftLeg  6.73309 16.2565 -2.25866
LeftFoot  -1.25664 0.445573 -4.96372
LeftToes  5.09284e-011 3.02203e-011 3.83118e-011
488
root  -3.09983 40.2231 11.5188 -177.492 -6.01141 179.267
RightUpLeg  0.189343 -11.1234 -14.0278
RightLeg  -0.140901 5.64006 -0.78999
RightFoot  3.52953 -1.58426 12.2819
RightToes  -1.33073e-015 0 -3.6325e-017
Spine  0.344657 1.41063 -6.46642
Spine1  18.5992 -0.269672 4.75857
HEad  13.6251 -14.6845 1.9255
LeftShoulder1  6.90303 -14.5933 -32.1258
LeftArm  21.8563 -2.48172 -44.9672
LeftForeArm  12.7776 -38.1 -7.99956
LeftHand  -0.246645 0.021 5.37786
RightShoulder  7.02143 14.6124 32.8001
RightArm  36.8684 10.7703 37.4146
RightForeArm  12.3927 38.9372 8.28175
RightHand  -0.24729 -0.0210522 -5.37781
LeftUpLeg  -4.3147 10.3256 7.33241
LeftLeg  6.03513 16.7448 -2.46728
LeftFoot  -0.557478 0.522525 -5.49971
LeftToes  5.09284e-011 3.02203e-011 3.83118e-011
489
root  -2.62862 40.2003 11.5306 -177.251 -5.30551 178.947
RightUpLeg  -0.134149 -10.7 -13.288
RightLeg  -0.41464 5.02863 -0.941144
RightFoot  2.32384 -1.26646 10.6779
RightToes  -1.33073e-015 0 -3.6325e-017
Spine  0.696627 1.47333 -6.25983
Spine1  18.3619 -0.105147 4.60793
HEad  13.6221 -13.8149 1.30472
LeftShoulder1  7.02212 -14.7307 -32.4913
LeftArm  22.7941 -3.85839 -45.9067
LeftForeArm  11.3151 -38.2282 -8.12968
LeftHand  -0.246645 0.021 5.37786
RightShoulder  7.07438 14.6709 32.9659
RightArm  36.6956 12.3198 38.7289
RightForeArm  12.1185 39.4373 8.45374
RightHand  -0.24729 -0.0210522 -5.37781
LeftUpLeg  -4.13908 10.5396 7.7751
LeftLeg  5.28427 17.1444 -2.71667
LeftFoot  0.180102 0.608073 -6.0359
LeftToes  5.09284e-011 3.02203e-011 3.83118e-011
490
root  -2.14901 40.1993 11.5549 -177.189 -4.74693 178.808
RightUpLeg  -0.587685 -10.1743 -12.3977
RightLeg  -0.090443 4.55962 -1.15038
RightFoot  1.39978 -1.05272 9.49744
RightToes  -1.33073e-015 0 -3.6325e-017
Spine  1.31126 1.47923 -5.19181
Spine1  18.0878 0.1701 3.93105
HEad  13.6596 -13.0271 0.865316
LeftShoulder1  7.12122 -14.8907 -32.6932
LeftArm  23.7722 -5.09962 -46.7684
LeftForeArm  8.87799 -38.2732 -8.29546
LeftHand  -0.246645 0.021 5.37786
RightShoulder  7.14103 14.7546 33.1511
RightArm  36.9214 14.5564 40.4928
RightForeArm  9.80621 38.924 8.44225
RightHand  -0.24729 -0.0210522 -5.37781
LeftUpLeg  -3.71626 10.7441 8.39611
LeftLeg  4.26786 17.4763 -2.95256
LeftFoot  1.09842 0.711637 -6.58625
LeftToes  5.09284e-011 3.02203e-011 3.83118e-011
491
root  -1.66959 40.2164 11.5985 -177.243 -4.28154 179.009
RightUpLeg  -1.28095 -9.55233 -11.2249
RightLeg  0.860286 4.20658 -1.26254
RightFoot  0.842752 -0.900982 8.48271
RightToes  -1.33073e-015 0 -3.6325e-017
Spine  2.08926 1.44946 -3.02538
Spine1  17.948 0.606894 2.65585
HEad  13.6857 -12.3483 0.516587
LeftShoulder1  7.24876 -15.0806 -32.9813
LeftArm  24.9935 -6.51688 -47.4274
LeftForeArm  4.60125 -38.0244 -8.48349
LeftHand  -0.246645 0.021 5.37786
RightShoulder  7.25541 14.8939 33.4739
RightArm  36.9534 17.1625 42.3741
RightForeArm  6.05704 37.4633 8.23068
RightHand  -0.24729 -0.0210522 -5.37781
LeftUpLeg  -3.24776 11.0017 9.32272
LeftLeg  3.23953 17.6925 -3.06102
LeftFoot  2.12404 0.833101 -7.16089
LeftToes  5.09284e-011 3.02203e-011 3.83118e-011
